<svg width="26" height="30" viewBox="0 0 26 30" fill="none" xmlns="http://www.w3.org/2000/svg">
<path fill-rule="evenodd" clip-rule="evenodd" d="M6.1774 7.28513C6.1774 3.82193 9.03542 1 12.5789 1C16.1225 1 18.9805 3.82193 18.9805 7.28513C18.9805 10.7483 16.1225 13.5703 12.5789 13.5703C9.03542 13.5703 6.1774 10.7483 6.1774 7.28513ZM12.5789 0C8.49924 0 5.1774 3.25368 5.1774 7.28513C5.1774 11.3166 8.49924 14.5703 12.5789 14.5703C16.6586 14.5703 19.9805 11.3166 19.9805 7.28513C19.9805 3.25368 16.6586 0 12.5789 0ZM1 26.5097C1 23.6591 3.29061 21.3554 6.1075 21.3554H19.0479C21.8648 21.3554 24.1554 23.6591 24.1554 26.5097V28.8368H1V26.5097ZM6.1075 20.3554C2.73051 20.3554 0 23.1147 0 26.5097V29.3368C0 29.613 0.223858 29.8368 0.5 29.8368H24.6554C24.9315 29.8368 25.1554 29.613 25.1554 29.3368V26.5097C25.1554 23.1147 22.4249 20.3554 19.0479 20.3554H6.1075Z" fill="black"/>
</svg>
